<svg height="512pt" viewBox="-101 0 512 512" width="512pt" xmlns="http://www.w3.org/2000/svg"><path d="m259.480469 0c-5.074219 0-130.785157 0-135.859375 0l31.421875 113.320312h61.296875v-66.960937h43.140625c8.535156 0 15.453125-6.921875 15.453125-15.453125v-15.453125c0-8.535156-6.917969-15.453125-15.453125-15.453125zm0 0" fill="#676f72"/><path d="m123.621094 0c-17.070313 0-30.90625 13.835938-30.90625 30.90625v82.414062h62.328125v-113.320312zm0 0" fill="#4c5659"/><path d="m216.339844 61.8125h-123.625c-17.066406 0-30.902344 13.835938-30.902344 30.902344v183.890625h185.429688v-183.890625c0-17.066406-13.835938-30.902344-30.902344-30.902344zm0 0" fill="#82888b"/><path d="m155.042969 61.8125h-62.328125c-17.066406 0-30.902344 13.835938-30.902344 30.902344v183.890625h62.324219v-132.28125c0-30.335938 10.976562-59.644531 30.90625-82.511719zm0 0" fill="#676f72"/><path d="m247.242188 256h-185.429688c-34.140625 0-61.8125 27.671875-61.8125 61.8125v132.375c0 34.140625 27.671875 61.8125 61.8125 61.8125h185.429688c34.136718 0 61.8125-27.671875 61.8125-61.8125v-132.375c0-34.140625-27.675782-61.8125-61.8125-61.8125zm0 0" fill="#b0ebd8"/><path d="m124.136719 362.773438v-106.773438h-62.324219c-34.140625 0-61.8125 27.671875-61.8125 61.8125v132.375c0 34.140625 27.671875 61.8125 61.8125 61.8125h124.136719c-39.578125-39.578125-61.8125-93.253906-61.8125-149.226562zm0 0" fill="#5fd9b3"/><path d="m147.066406 299.082031c-25.359375 25.222657-60.496094 69.777344-60.496094 105.378907v.003906h.042969c0 38.363281 30.5625 67.519531 67.910157 67.519531h.003906v-.039063c37.523437 0 67.914062-30.199218 67.914062-67.484374h.042969c0-36.347657-34.734375-79.757813-60.492187-105.375l-.042969-.042969c-4.121094-4.054688-10.785157-4.035157-14.882813.039062zm0 0" fill="#5fd9b3"/><path d="m124.136719 362.773438v-38.1875c-19.542969 24.289062-37.566407 54.375-37.566407 79.875h.042969c0 38.367187 30.5625 67.523437 67.910157 67.523437h.003906v-.042969h.050781c-19.746094-32.664062-30.441406-70.363281-30.441406-109.167968zm0 0" fill="#00ce8e"/><g fill="#313d40"><path d="m109.199219 172.8125c-4.269531 0-7.726563 3.460938-7.726563 7.726562v10.304688c0 4.265625 3.460938 7.726562 7.726563 7.726562 2.132812 0 4.066406-.867187 5.464843-2.265624 1.398438-1.398438 2.261719-3.328126 2.261719-5.464844v-10.300782c0-4.265624-3.460937-7.726562-7.726562-7.726562zm0 0"/><path d="m199.855469 172.8125c-4.269531 0-7.726563 3.460938-7.726563 7.726562v10.300782c0 4.269531 3.457032 7.726562 7.726563 7.730468 2.132812 0 4.0625-.867187 5.460937-2.265624 1.398438-1.398438 2.265625-3.328126 2.265625-5.460938v-10.304688c0-4.265624-3.457031-7.726562-7.726562-7.726562zm0 0"/><path d="m164.554688 185.445312c-1.714844 3.589844-5.449219 5.910157-9.511719 5.910157s-7.796875-2.316407-9.511719-5.90625c-1.839844-3.851563-6.453125-5.480469-10.304688-3.640625-3.851562 1.839844-5.476562 6.453125-3.636718 10.304687 4.265625 8.925781 13.472656 14.695313 23.453125 14.695313 7.023437 0 13.664062-2.855469 18.46875-7.664063 2.023437-2.019531 3.71875-4.386719 4.984375-7.027343 1.839844-3.851563.210937-8.464844-3.636719-10.304688-3.851563-1.84375-8.460937-.214844-10.304687 3.632812zm0 0"/></g></svg>