<?xml version="1.0" encoding="UTF-8" standalone="no"?>
<!-- Created with Inkscape (http://www.inkscape.org/) -->

<svg
   xmlns:dc="http://purl.org/dc/elements/1.1/"
   xmlns:cc="http://creativecommons.org/ns#"
   xmlns:rdf="http://www.w3.org/1999/02/22-rdf-syntax-ns#"
   xmlns:svg="http://www.w3.org/2000/svg"
   xmlns="http://www.w3.org/2000/svg"
   xmlns:sodipodi="http://sodipodi.sourceforge.net/DTD/sodipodi-0.dtd"
   xmlns:inkscape="http://www.inkscape.org/namespaces/inkscape"
   width="100"
   height="100"
   viewBox="0 0 26.458333 26.458334"
   version="1.1"
   id="svg1876"
   inkscape:version="0.92.5 (0.92.5+68)"
   sodipodi:docname="92.svg">
  <defs
     id="defs1870">
    <inkscape:path-effect
       effect="powerstroke"
       id="path-effect2476"
       is_visible="true"
       offset_points="0.015004032,1.489488"
       sort_points="true"
       interpolator_type="CubicBezierJohan"
       interpolator_beta="0.2"
       start_linecap_type="zerowidth"
       linejoin_type="extrp_arc"
       miter_limit="4"
       end_linecap_type="zerowidth" />
    <inkscape:path-effect
       effect="powerstroke"
       id="path-effect2480"
       is_visible="true"
       offset_points="0.015004032,1.489488"
       sort_points="true"
       interpolator_type="CubicBezierJohan"
       interpolator_beta="0.2"
       start_linecap_type="zerowidth"
       linejoin_type="extrp_arc"
       miter_limit="4"
       end_linecap_type="zerowidth" />
    <inkscape:path-effect
       effect="powerstroke"
       id="path-effect2064"
       is_visible="true"
       offset_points="0.015004032,1.489488"
       sort_points="true"
       interpolator_type="CubicBezierJohan"
       interpolator_beta="0.2"
       start_linecap_type="zerowidth"
       linejoin_type="extrp_arc"
       miter_limit="4"
       end_linecap_type="zerowidth" />
    <inkscape:path-effect
       effect="powerstroke"
       id="path-effect2141"
       is_visible="true"
       offset_points="0.015004032,1.489488"
       sort_points="true"
       interpolator_type="CubicBezierJohan"
       interpolator_beta="0.2"
       start_linecap_type="zerowidth"
       linejoin_type="extrp_arc"
       miter_limit="4"
       end_linecap_type="zerowidth" />
    <inkscape:path-effect
       end_linecap_type="zerowidth"
       miter_limit="4"
       linejoin_type="extrp_arc"
       start_linecap_type="zerowidth"
       interpolator_beta="0.2"
       interpolator_type="CubicBezierJohan"
       sort_points="true"
       offset_points="0.015004032,1.489488"
       is_visible="true"
       id="path-effect1474"
       effect="powerstroke" />
    <inkscape:path-effect
       end_linecap_type="zerowidth"
       miter_limit="4"
       linejoin_type="extrp_arc"
       start_linecap_type="zerowidth"
       interpolator_beta="0.2"
       interpolator_type="CubicBezierJohan"
       sort_points="true"
       offset_points="0.015004032,1.489488"
       is_visible="true"
       id="path-effect1478"
       effect="powerstroke" />
    <inkscape:path-effect
       effect="powerstroke"
       id="path-effect1858"
       is_visible="true"
       offset_points="0.015004032,1.489488"
       sort_points="true"
       interpolator_type="CubicBezierJohan"
       interpolator_beta="0.2"
       start_linecap_type="zerowidth"
       linejoin_type="extrp_arc"
       miter_limit="4"
       end_linecap_type="zerowidth" />
    <inkscape:path-effect
       effect="powerstroke"
       id="path-effect2191"
       is_visible="true"
       offset_points="0.015004032,1.489488"
       sort_points="true"
       interpolator_type="CubicBezierJohan"
       interpolator_beta="0.2"
       start_linecap_type="zerowidth"
       linejoin_type="extrp_arc"
       miter_limit="4"
       end_linecap_type="zerowidth" />
    <inkscape:path-effect
       effect="powerstroke"
       id="path-effect2193"
       is_visible="true"
       offset_points="0.015004032,1.489488"
       sort_points="true"
       interpolator_type="CubicBezierJohan"
       interpolator_beta="0.2"
       start_linecap_type="zerowidth"
       linejoin_type="extrp_arc"
       miter_limit="4"
       end_linecap_type="zerowidth" />
    <inkscape:path-effect
       effect="powerstroke"
       id="path-effect2195"
       is_visible="true"
       offset_points="0.015004032,1.489488"
       sort_points="true"
       interpolator_type="CubicBezierJohan"
       interpolator_beta="0.2"
       start_linecap_type="zerowidth"
       linejoin_type="extrp_arc"
       miter_limit="4"
       end_linecap_type="zerowidth" />
    <inkscape:path-effect
       effect="powerstroke"
       id="path-effect2197"
       is_visible="true"
       offset_points="0.015004032,1.489488"
       sort_points="true"
       interpolator_type="CubicBezierJohan"
       interpolator_beta="0.2"
       start_linecap_type="zerowidth"
       linejoin_type="extrp_arc"
       miter_limit="4"
       end_linecap_type="zerowidth" />
  </defs>
  <sodipodi:namedview
     id="base"
     pagecolor="#ffffff"
     bordercolor="#666666"
     borderopacity="1.0"
     inkscape:pageopacity="0.0"
     inkscape:pageshadow="2"
     inkscape:zoom="4.0000002"
     inkscape:cx="31.461958"
     inkscape:cy="47.87232"
     inkscape:document-units="px"
     inkscape:current-layer="layer1"
     showgrid="false"
     units="px"
     fit-margin-top="0"
     fit-margin-left="0"
     fit-margin-right="0"
     fit-margin-bottom="0"
     inkscape:showpageshadow="false"
     inkscape:window-width="1366"
     inkscape:window-height="719"
     inkscape:window-x="0"
     inkscape:window-y="21"
     inkscape:window-maximized="1" />
  <metadata
     id="metadata1873">
    <rdf:RDF>
      <cc:Work
         rdf:about="">
        <dc:format>image/svg+xml</dc:format>
        <dc:type
           rdf:resource="http://purl.org/dc/dcmitype/StillImage" />
        <dc:title></dc:title>
      </cc:Work>
    </rdf:RDF>
  </metadata>
  <g
     inkscape:label="Layer 1"
     inkscape:groupmode="layer"
     id="layer1"
     transform="translate(131.02975,-196.70833)">
    <g
       transform="translate(-95.828399,239.84768)"
       id="g3470">
      <path
         inkscape:connector-curvature="0"
         id="path3461"
         d="m -20.686533,-42.874768 a 0.26125261,0.26125261 0 0 0 -0.0417,0.004 c -1.00089,0.17094 -1.93683,0.60062 -2.71693,1.2428 -0.076,-0.0232 -0.15287,-0.0468 -0.23024,-0.0676 a 0.26125261,0.26125261 0 0 0 -0.002,-5.6e-4 c -0.14546,-0.0371 -0.29186,-0.0695 -0.43964,-0.095 a 0.26125261,0.26125261 0 0 0 -0.0519,-0.004 0.26125261,0.26125261 0 0 0 -0.21588,0.12601 c -0.18623,0.30761 -0.33262,0.64728 -0.43037,1.01252 l -0.19596,0.7339 c -0.0477,0.1779 -0.082,0.35672 -0.10378,0.53452 -0.12184,0.003 -0.24367,0.009 -0.36505,0.0232 a 0.26125261,0.26125261 0 0 0 -0.227,0.18716 c -0.10053,0.3456 -0.15427,0.7114 -0.15427,1.08951 v 0.75986 c 0,2.05908 1.59943,3.73967 3.6233,3.86299 v 7.78294 c -0.20939,-0.59442 -0.61697,-1.37846 -1.38141,-1.81356 -0.50316,-0.2863 -1.06102,-0.36505 -1.56195,-0.35208 -0.83495,0.0232 -1.51155,0.3002 -1.51155,0.3002 a 0.26125256,0.26125256 0 0 0 -0.164,0.28305 c 0,0 0.24322,1.83954 1.58479,2.60315 1.22924,0.69962 2.78183,0.16214 3.03417,0.0667 v 7.38517 a 0.26125261,0.26125261 0 1 0 0.52247,0 v -2.86864 c 0.22793,0.0871 1.801,0.6432 3.04279,-0.0635 1.34166,-0.7636 1.58497,-2.6031 1.58497,-2.6031 a 0.26125256,0.26125256 0 0 0 -0.16399,-0.28352 c 0,0 -0.67661,-0.27796 -1.51155,-0.30019 -0.50093,-0.0139 -1.0588,0.0658 -1.56195,0.35208 -0.77533,0.44103 -1.18342,1.24146 -1.39017,1.83871 v -8.04288 c 0.22792,0.0871 1.80099,0.64316 3.04278,-0.0635 1.34167,-0.76361 1.58498,-2.60315 1.58498,-2.60315 a 0.26125256,0.26125256 0 0 0 -0.164,-0.28352 c 0,0 -0.6766,-0.27796 -1.51155,-0.30019 -0.50093,-0.0139 -1.0588,0.0658 -1.56195,0.35208 -0.77532,0.44149 -1.18342,1.24146 -1.39017,1.83871 v -3.22828 c 0.72691,-0.0528 1.39883,-0.30576 1.95804,-0.70458 a 0.26125261,0.26125261 0 0 0 0.002,-10e-4 c 0.98096,-0.70069 1.61833,-1.85284 1.61833,-3.15425 v -0.7598 c 0,-0.19457 -0.0139,-0.38544 -0.0417,-0.57172 a 0.26125261,0.26125261 0 0 0 -0.25201,-0.22329 0.26125261,0.26125261 0 0 0 -0.0505,0.004 c -0.0278,0.005 -0.057,0.009 -0.0852,0.0139 -0.004,-0.31688 -0.0468,-0.63848 -0.1325,-0.9586 l -0.19642,-0.7339 c -0.0977,-0.36506 -0.24414,-0.70473 -0.43038,-1.01252 a 0.26125261,0.26125261 0 0 0 -0.21634,-0.12601 0.26125261,0.26125261 0 0 0 -0.0514,0.004 c -0.14778,0.0232 -0.29463,0.057 -0.43964,0.095 a 0.26125261,0.26125261 0 0 0 -0.003,9.2e-4 c -0.11582,0.0324 -0.23025,0.0676 -0.34328,0.10656 v -0.54768 c 0,-0.20847 -0.0139,-0.41277 -0.0463,-0.61258 a 0.26125261,0.26125261 0 0 0 -0.2585,-0.22329 z"
         style="color:#000000;font-style:normal;font-variant:normal;font-weight:normal;font-stretch:normal;font-size:medium;line-height:normal;font-family:sans-serif;font-variant-ligatures:normal;font-variant-position:normal;font-variant-caps:normal;font-variant-numeric:normal;font-variant-alternates:normal;font-feature-settings:normal;text-indent:0;text-align:start;text-decoration:none;text-decoration-line:none;text-decoration-style:solid;text-decoration-color:#000000;letter-spacing:normal;word-spacing:normal;text-transform:none;writing-mode:lr-tb;direction:ltr;text-orientation:mixed;dominant-baseline:auto;baseline-shift:baseline;text-anchor:start;white-space:normal;shape-padding:0;clip-rule:nonzero;display:inline;overflow:visible;visibility:visible;opacity:1;isolation:auto;mix-blend-mode:normal;color-interpolation:sRGB;color-interpolation-filters:linearRGB;solid-color:#000000;solid-opacity:1;vector-effect:none;fill:#000000;fill-opacity:1;fill-rule:nonzero;stroke:none;stroke-width:3.72972417;stroke-linecap:round;stroke-linejoin:round;stroke-miterlimit:4;stroke-dasharray:none;stroke-dashoffset:0;stroke-opacity:1;paint-order:fill markers stroke;color-rendering:auto;image-rendering:auto;shape-rendering:auto;text-rendering:auto;enable-background:accumulate" />
      <path
         inkscape:connector-curvature="0"
         id="path3459"
         transform="matrix(0.26458333,0,0,0.26458333,-131.02975,196.70833)"
         d="m 416.14844,-903.29297 c -2.65496,0.60487 -5.14267,1.73772 -7.33399,3.33594 1.45573,0.65696 2.82016,1.48033 4.07032,2.44336 1.04847,-0.76131 2.16437,-1.41877 3.33398,-1.9668 v -2.87109 c 0,-0.31865 -0.0514,-0.62809 -0.0703,-0.94141 z m -15.52149,12.92774 0.008,0.006 c -0.27141,0 -0.54315,0.0181 -0.81641,0.0332 -0.22035,0.93184 -0.35938,1.89495 -0.35938,2.89648 v 2.8711 c 0,7.02859 5.61268,12.65429 12.6211,12.65429 2.54079,0 4.87523,-0.76498 6.84765,-2.04492 -0.21188,-1.8805 -0.70051,-3.67022 -1.42187,-5.33008 -0.0351,-0.0578 -0.0539,-0.12715 -0.0879,-0.17968 -0.0185,-0.0525 -0.0338,-0.089 -0.0527,-0.12305 -0.6904,-1.50229 -1.58333,-2.9152 -2.66015,-4.19336 a 0.98741143,0.98741143 0 0 1 -0.01,-0.0137 0.98741143,0.98741143 0 0 1 -0.008,-0.008 c -0.13996,-0.17684 -0.3017,-0.36873 -0.48047,-0.5664 -0.22412,-0.2451 -0.45323,-0.48398 -0.68945,-0.7168 l -0.0195,-0.0195 c -0.0631,-0.0563 -0.11563,-0.1252 -0.18555,-0.17773 -2.35412,-2.22683 -6.57031,-4.95939 -12.13672,-5.06446 a 0.98741143,0.98741143 0 0 1 -0.19726,-0.0195 c -0.11717,-0.002 -0.22911,-0.004 -0.35157,-0.004 z m 24.00977,2.15625 -0.004,0.002 c -2.87644,0.67147 -5.53838,2.01342 -7.78515,3.9375 1.94842,2.55934 3.31181,5.59883 3.88086,8.92383 2.43677,-2.30211 3.96093,-5.56042 3.96093,-9.20899 v -2.87304 c 0,-0.26616 -0.0376,-0.52047 -0.0527,-0.78125 z"
         style="color:#000000;font-style:normal;font-variant:normal;font-weight:normal;font-stretch:normal;font-size:medium;line-height:normal;font-family:sans-serif;font-variant-ligatures:normal;font-variant-position:normal;font-variant-caps:normal;font-variant-numeric:normal;font-variant-alternates:normal;font-feature-settings:normal;text-indent:0;text-align:start;text-decoration:none;text-decoration-line:none;text-decoration-style:solid;text-decoration-color:#000000;letter-spacing:normal;word-spacing:normal;text-transform:none;writing-mode:lr-tb;direction:ltr;text-orientation:mixed;dominant-baseline:auto;baseline-shift:baseline;text-anchor:start;white-space:normal;shape-padding:0;clip-rule:nonzero;display:inline;overflow:visible;visibility:visible;opacity:1;isolation:auto;mix-blend-mode:normal;color-interpolation:sRGB;color-interpolation-filters:linearRGB;solid-color:#000000;solid-opacity:1;vector-effect:none;fill:#ffb6b6;fill-opacity:1;fill-rule:nonzero;stroke:none;stroke-width:14.09659481;stroke-linecap:round;stroke-linejoin:round;stroke-miterlimit:4;stroke-dasharray:none;stroke-dashoffset:0;stroke-opacity:1;paint-order:fill markers stroke;color-rendering:auto;image-rendering:auto;shape-rendering:auto;text-rendering:auto;enable-background:accumulate" />
      <path
         inkscape:connector-curvature="0"
         id="path3457"
         transform="matrix(0.26458333,0,0,0.26458333,-131.02975,196.70833)"
         d="m 404.43359,-899.32031 c -0.44999,0.84344 -0.83447,1.73488 -1.09375,2.70312 l -0.74218,2.77344 c -0.13304,0.52879 -0.18399,1.0548 -0.25391,1.58008 5.18185,0.43857 9.84001,2.82517 13.21094,6.45117 0.70666,-0.60404 1.45306,-1.15919 2.23047,-1.6582 -0.90104,-2.54272 -2.3266,-4.82236 -4.14844,-6.70899 -0.44825,-0.4605 -0.9207,-0.89729 -1.41797,-1.31054 a 0.98741143,0.98741143 0 0 1 -0.0879,-0.0879 c -0.9891,-0.81805 -2.06426,-1.53399 -3.21289,-2.13282 -0.004,-0.004 -0.0119,-0.005 -0.0156,-0.008 -0.0593,-0.0352 -0.12929,-0.0715 -0.19922,-0.10547 -0.0684,-0.0178 -0.12148,-0.0539 -0.1914,-0.0879 -0.0352,-0.0185 -0.0715,-0.0376 -0.10547,-0.0527 -0.11036,-0.0525 -0.22891,-0.10372 -0.33398,-0.15625 -0.0185,-0.004 -0.0376,-0.012 -0.0527,-0.0195 -0.49553,-0.22413 -1.00519,-0.4291 -1.52344,-0.60938 a 0.98741143,0.98741143 0 0 1 -0.0176,-0.008 c -0.40971,-0.14355 -0.82628,-0.26426 -1.25,-0.38672 -0.26264,-0.0699 -0.53036,-0.12325 -0.79493,-0.17578 z m 16.36719,0.36523 c -0.26441,0.0525 -0.53224,0.10586 -0.79492,0.17578 -1.99045,0.54452 -3.86193,1.43738 -5.55859,2.60352 2.23578,2.11529 3.99303,4.73492 5.09961,7.68945 1.11431,-0.56731 2.2815,-1.03302 3.48437,-1.38867 0.028,-1.185 -0.0706,-2.38953 -0.39453,-3.59766 l -0.74219,-2.77539 c -0.25912,-0.96737 -0.64376,-1.85724 -1.09375,-2.70117 z"
         style="color:#000000;font-style:normal;font-variant:normal;font-weight:normal;font-stretch:normal;font-size:medium;line-height:normal;font-family:sans-serif;font-variant-ligatures:normal;font-variant-position:normal;font-variant-caps:normal;font-variant-numeric:normal;font-variant-alternates:normal;font-feature-settings:normal;text-indent:0;text-align:start;text-decoration:none;text-decoration-line:none;text-decoration-style:solid;text-decoration-color:#000000;letter-spacing:normal;word-spacing:normal;text-transform:none;writing-mode:lr-tb;direction:ltr;text-orientation:mixed;dominant-baseline:auto;baseline-shift:baseline;text-anchor:start;white-space:normal;shape-padding:0;clip-rule:nonzero;display:inline;overflow:visible;visibility:visible;opacity:1;isolation:auto;mix-blend-mode:normal;color-interpolation:sRGB;color-interpolation-filters:linearRGB;solid-color:#000000;solid-opacity:1;vector-effect:none;fill:#fde2e2;fill-opacity:1;fill-rule:nonzero;stroke:none;stroke-width:14.09659481;stroke-linecap:round;stroke-linejoin:round;stroke-miterlimit:4;stroke-dasharray:none;stroke-dashoffset:0;stroke-opacity:1;paint-order:fill markers stroke;color-rendering:auto;image-rendering:auto;shape-rendering:auto;text-rendering:auto;enable-background:accumulate" />
      <path
         inkscape:connector-curvature="0"
         id="path3449"
         transform="matrix(0.26458333,0,0,0.26458333,-131.02975,196.70833)"
         d="m 423.93164,-864.00781 v 0.002 c -1.54258,-0.0175 -3.17866,0.22337 -4.55664,1.00781 -3.11089,1.77086 -4.40553,5.91501 -4.82227,7.59766 1.6783,0.48321 5.99244,1.4608 9.11524,-0.31641 3.1107,-1.77071 4.40749,-5.91305 4.82422,-7.5957 -0.8888,-0.25565 -2.41876,-0.63496 -4.25391,-0.6875 -0.10167,-0.004 -0.20157,-0.007 -0.30664,-0.008 z m -23.51562,17.32031 c -0.10167,0.004 -0.20157,0.004 -0.30664,0.008 -1.83534,0.0596 -3.36248,0.43201 -4.25196,0.6875 0.41654,1.68246 1.71104,5.825 4.82227,7.59571 3.12279,1.77724 7.43979,0.7977 9.11719,0.31445 -0.41674,-1.6825 -1.71284,-5.82481 -4.82422,-7.5957 -1.37711,-0.78252 -3.01211,-1.02293 -4.55469,-1.00782 z m 23.51562,17.08398 c -1.54258,-0.0175 -3.17866,0.22537 -4.55664,1.00977 -3.11089,1.77071 -4.40553,5.91306 -4.82227,7.5957 1.6783,0.48322 5.99244,1.46272 9.11524,-0.31445 3.1107,-1.7709 4.40749,-5.91501 4.82422,-7.59766 -0.8888,-0.25564 -2.41876,-0.63301 -4.25391,-0.68554 -0.10167,-0.005 -0.20157,-0.007 -0.30664,-0.008 z"
         style="color:#000000;font-style:normal;font-variant:normal;font-weight:normal;font-stretch:normal;font-size:medium;line-height:normal;font-family:sans-serif;font-variant-ligatures:normal;font-variant-position:normal;font-variant-caps:normal;font-variant-numeric:normal;font-variant-alternates:normal;font-feature-settings:normal;text-indent:0;text-align:start;text-decoration:none;text-decoration-line:none;text-decoration-style:solid;text-decoration-color:#000000;letter-spacing:normal;word-spacing:normal;text-transform:none;writing-mode:lr-tb;direction:ltr;text-orientation:mixed;dominant-baseline:auto;baseline-shift:baseline;text-anchor:start;white-space:normal;shape-padding:0;clip-rule:nonzero;display:inline;overflow:visible;visibility:visible;opacity:1;isolation:auto;mix-blend-mode:normal;color-interpolation:sRGB;color-interpolation-filters:linearRGB;solid-color:#000000;solid-opacity:1;vector-effect:none;fill:#679b9b;fill-opacity:1;fill-rule:nonzero;stroke:none;stroke-width:14.09659481;stroke-linecap:round;stroke-linejoin:round;stroke-miterlimit:4;stroke-dasharray:none;stroke-dashoffset:0;stroke-opacity:1;paint-order:fill markers stroke;color-rendering:auto;image-rendering:auto;shape-rendering:auto;text-rendering:auto;enable-background:accumulate" />
    </g>
  </g>
</svg>
