<?xml version="1.0" encoding="UTF-8" standalone="no"?>
<!-- Created with Inkscape (http://www.inkscape.org/) -->

<svg
   xmlns:dc="http://purl.org/dc/elements/1.1/"
   xmlns:cc="http://creativecommons.org/ns#"
   xmlns:rdf="http://www.w3.org/1999/02/22-rdf-syntax-ns#"
   xmlns:svg="http://www.w3.org/2000/svg"
   xmlns="http://www.w3.org/2000/svg"
   xmlns:sodipodi="http://sodipodi.sourceforge.net/DTD/sodipodi-0.dtd"
   xmlns:inkscape="http://www.inkscape.org/namespaces/inkscape"
   width="100"
   height="100"
   viewBox="0 0 26.458333 26.458334"
   version="1.1"
   id="svg1876"
   inkscape:version="0.92.5 (0.92.5+68)"
   sodipodi:docname="92.svg">
  <defs
     id="defs1870">
    <inkscape:path-effect
       effect="powerstroke"
       id="path-effect2476"
       is_visible="true"
       offset_points="0.015004032,1.489488"
       sort_points="true"
       interpolator_type="CubicBezierJohan"
       interpolator_beta="0.2"
       start_linecap_type="zerowidth"
       linejoin_type="extrp_arc"
       miter_limit="4"
       end_linecap_type="zerowidth" />
    <inkscape:path-effect
       effect="powerstroke"
       id="path-effect2480"
       is_visible="true"
       offset_points="0.015004032,1.489488"
       sort_points="true"
       interpolator_type="CubicBezierJohan"
       interpolator_beta="0.2"
       start_linecap_type="zerowidth"
       linejoin_type="extrp_arc"
       miter_limit="4"
       end_linecap_type="zerowidth" />
    <inkscape:path-effect
       effect="powerstroke"
       id="path-effect2064"
       is_visible="true"
       offset_points="0.015004032,1.489488"
       sort_points="true"
       interpolator_type="CubicBezierJohan"
       interpolator_beta="0.2"
       start_linecap_type="zerowidth"
       linejoin_type="extrp_arc"
       miter_limit="4"
       end_linecap_type="zerowidth" />
    <inkscape:path-effect
       effect="powerstroke"
       id="path-effect2141"
       is_visible="true"
       offset_points="0.015004032,1.489488"
       sort_points="true"
       interpolator_type="CubicBezierJohan"
       interpolator_beta="0.2"
       start_linecap_type="zerowidth"
       linejoin_type="extrp_arc"
       miter_limit="4"
       end_linecap_type="zerowidth" />
    <inkscape:path-effect
       end_linecap_type="zerowidth"
       miter_limit="4"
       linejoin_type="extrp_arc"
       start_linecap_type="zerowidth"
       interpolator_beta="0.2"
       interpolator_type="CubicBezierJohan"
       sort_points="true"
       offset_points="0.015004032,1.489488"
       is_visible="true"
       id="path-effect1474"
       effect="powerstroke" />
    <inkscape:path-effect
       end_linecap_type="zerowidth"
       miter_limit="4"
       linejoin_type="extrp_arc"
       start_linecap_type="zerowidth"
       interpolator_beta="0.2"
       interpolator_type="CubicBezierJohan"
       sort_points="true"
       offset_points="0.015004032,1.489488"
       is_visible="true"
       id="path-effect1478"
       effect="powerstroke" />
    <inkscape:path-effect
       effect="powerstroke"
       id="path-effect1858"
       is_visible="true"
       offset_points="0.015004032,1.489488"
       sort_points="true"
       interpolator_type="CubicBezierJohan"
       interpolator_beta="0.2"
       start_linecap_type="zerowidth"
       linejoin_type="extrp_arc"
       miter_limit="4"
       end_linecap_type="zerowidth" />
    <inkscape:path-effect
       effect="powerstroke"
       id="path-effect2191"
       is_visible="true"
       offset_points="0.015004032,1.489488"
       sort_points="true"
       interpolator_type="CubicBezierJohan"
       interpolator_beta="0.2"
       start_linecap_type="zerowidth"
       linejoin_type="extrp_arc"
       miter_limit="4"
       end_linecap_type="zerowidth" />
    <inkscape:path-effect
       effect="powerstroke"
       id="path-effect2193"
       is_visible="true"
       offset_points="0.015004032,1.489488"
       sort_points="true"
       interpolator_type="CubicBezierJohan"
       interpolator_beta="0.2"
       start_linecap_type="zerowidth"
       linejoin_type="extrp_arc"
       miter_limit="4"
       end_linecap_type="zerowidth" />
    <inkscape:path-effect
       effect="powerstroke"
       id="path-effect2195"
       is_visible="true"
       offset_points="0.015004032,1.489488"
       sort_points="true"
       interpolator_type="CubicBezierJohan"
       interpolator_beta="0.2"
       start_linecap_type="zerowidth"
       linejoin_type="extrp_arc"
       miter_limit="4"
       end_linecap_type="zerowidth" />
    <inkscape:path-effect
       effect="powerstroke"
       id="path-effect2197"
       is_visible="true"
       offset_points="0.015004032,1.489488"
       sort_points="true"
       interpolator_type="CubicBezierJohan"
       interpolator_beta="0.2"
       start_linecap_type="zerowidth"
       linejoin_type="extrp_arc"
       miter_limit="4"
       end_linecap_type="zerowidth" />
  </defs>
  <sodipodi:namedview
     id="base"
     pagecolor="#ffffff"
     bordercolor="#666666"
     borderopacity="1.0"
     inkscape:pageopacity="0.0"
     inkscape:pageshadow="2"
     inkscape:zoom="4.0000002"
     inkscape:cx="31.461958"
     inkscape:cy="47.87232"
     inkscape:document-units="px"
     inkscape:current-layer="layer1"
     showgrid="false"
     units="px"
     fit-margin-top="0"
     fit-margin-left="0"
     fit-margin-right="0"
     fit-margin-bottom="0"
     inkscape:showpageshadow="false"
     inkscape:window-width="1366"
     inkscape:window-height="719"
     inkscape:window-x="0"
     inkscape:window-y="21"
     inkscape:window-maximized="1" />
  <metadata
     id="metadata1873">
    <rdf:RDF>
      <cc:Work
         rdf:about="">
        <dc:format>image/svg+xml</dc:format>
        <dc:type
           rdf:resource="http://purl.org/dc/dcmitype/StillImage" />
        <dc:title></dc:title>
      </cc:Work>
    </rdf:RDF>
  </metadata>
  <g
     inkscape:label="Layer 1"
     inkscape:groupmode="layer"
     id="layer1"
     transform="translate(131.02975,-196.70833)">
    <path
       inkscape:connector-curvature="0"
       id="path3660"
       d="m -116.51494,196.97291 a 0.26125261,0.26125261 0 0 0 -0.0417,0.004 c -1.00089,0.17094 -1.93683,0.60062 -2.71693,1.2428 -0.076,-0.0232 -0.15287,-0.0468 -0.23024,-0.0676 a 0.26125261,0.26125261 0 0 0 -0.002,-5.6e-4 c -0.14545,-0.0371 -0.29185,-0.0695 -0.43963,-0.095 a 0.26125261,0.26125261 0 0 0 -0.0519,-0.004 0.26125261,0.26125261 0 0 0 -0.21588,0.12601 c -0.18623,0.30761 -0.33262,0.64728 -0.43037,1.01252 l -0.19596,0.7339 c -0.0477,0.1779 -0.082,0.35672 -0.10378,0.53452 -0.12184,0.003 -0.24367,0.009 -0.36505,0.0232 a 0.26125261,0.26125261 0 0 0 -0.227,0.18716 c -0.10053,0.3456 -0.15427,0.7114 -0.15427,1.08951 v 0.75986 c 0,2.05908 1.59943,3.73967 3.6233,3.86299 v 7.78294 c -0.20939,-0.59442 -0.61697,-1.37846 -1.38141,-1.81356 -0.50316,-0.2863 -1.06102,-0.36505 -1.56195,-0.35208 -0.83495,0.0232 -1.51155,0.3002 -1.51155,0.3002 a 0.26125256,0.26125256 0 0 0 -0.164,0.28305 c 0,0 0.24322,1.83954 1.58479,2.60315 1.22924,0.69962 2.78183,0.16214 3.03417,0.0667 v 7.38517 a 0.26125261,0.26125261 0 1 0 0.52247,0 v -2.86864 c 0.22793,0.0871 1.801,0.6432 3.04279,-0.0635 1.34166,-0.7636 1.58497,-2.6031 1.58497,-2.6031 a 0.26125256,0.26125256 0 0 0 -0.16399,-0.28352 c 0,0 -0.67661,-0.27796 -1.51155,-0.30019 -0.50093,-0.0139 -1.0588,0.0658 -1.56195,0.35208 -0.77533,0.44103 -1.18342,1.24146 -1.39017,1.83871 v -8.04288 c 0.22792,0.0871 1.80099,0.64316 3.04278,-0.0635 1.34167,-0.76361 1.58498,-2.60315 1.58498,-2.60315 a 0.26125256,0.26125256 0 0 0 -0.164,-0.28352 c 0,0 -0.6766,-0.27796 -1.51155,-0.30019 -0.50093,-0.0139 -1.0588,0.0658 -1.56195,0.35208 -0.77532,0.44149 -1.18342,1.24146 -1.39017,1.83871 v -3.22828 c 0.72691,-0.0528 1.39883,-0.30576 1.95804,-0.70458 a 0.26125261,0.26125261 0 0 0 0.002,-0.001 c 0.98096,-0.70069 1.61833,-1.85284 1.61833,-3.15425 v -0.7598 c 0,-0.19457 -0.0139,-0.38544 -0.0417,-0.57172 a 0.26125261,0.26125261 0 0 0 -0.25201,-0.22329 0.26125261,0.26125261 0 0 0 -0.0505,0.004 c -0.0278,0.005 -0.057,0.009 -0.0852,0.0139 -0.004,-0.31688 -0.0468,-0.63848 -0.1325,-0.9586 l -0.19643,-0.7339 c -0.0977,-0.36506 -0.24414,-0.70473 -0.43038,-1.01252 a 0.26125261,0.26125261 0 0 0 -0.21634,-0.12601 0.26125261,0.26125261 0 0 0 -0.0514,0.004 c -0.14778,0.0232 -0.29463,0.057 -0.43964,0.095 a 0.26125261,0.26125261 0 0 0 -0.003,9.2e-4 c -0.11582,0.0324 -0.23025,0.0676 -0.34328,0.10656 v -0.54768 c 0,-0.20847 -0.0139,-0.41277 -0.0463,-0.61258 a 0.26125261,0.26125261 0 0 0 -0.2585,-0.22329 z m -0.23719,0.58691 c 0.005,0.0829 0.0185,0.16446 0.0185,0.24877 v 0.75967 c -0.30946,0.145 -0.60475,0.31919 -0.88216,0.52062 -0.33077,-0.2548 -0.69147,-0.47244 -1.07663,-0.64626 0.57992,-0.42296 1.23794,-0.72293 1.94058,-0.88294 z m -3.09986,1.0512 c 0.07,0.0139 0.14083,0.0278 0.21032,0.0463 0.11211,0.0324 0.22237,0.0644 0.33077,0.10238 a 0.26125261,0.26125261 0 0 0 0.005,0.002 c 0.13712,0.0477 0.27193,0.10192 0.40304,0.16122 0.004,0.002 0.009,0.004 0.0139,0.005 0.0278,0.0139 0.0593,0.0278 0.0885,0.0417 0.009,0.004 0.0185,0.009 0.0278,0.0139 0.0185,0.009 0.0324,0.0185 0.0505,0.0232 0.0185,0.009 0.0371,0.0185 0.0528,0.0278 10e-4,7.4e-4 0.003,0.001 0.004,0.002 0.30391,0.15844 0.58849,0.34791 0.85019,0.56435 a 0.26125261,0.26125261 0 0 0 0.0232,0.0232 c 0.13157,0.10934 0.25665,0.22515 0.37525,0.34699 0.48203,0.49917 0.85917,1.10225 1.09757,1.77501 -0.20569,0.13203 -0.40304,0.27889 -0.59001,0.43871 -0.89189,-0.95938 -2.12469,-1.591 -3.49572,-1.70704 0.0185,-0.13898 0.0324,-0.27796 0.0676,-0.41787 l 0.19596,-0.73391 c 0.0686,-0.25618 0.17049,-0.49171 0.28955,-0.71487 z m 4.33076,0.0978 c 0.11906,0.22329 0.22098,0.4591 0.28954,0.71505 l 0.19596,0.73391 c 0.0857,0.31965 0.11211,0.63871 0.1047,0.95224 -0.31826,0.0941 -0.62703,0.21728 -0.92186,0.36738 -0.29278,-0.78172 -0.75785,-1.47477 -1.3494,-2.03444 0.44891,-0.30854 0.94386,-0.5449 1.4705,-0.68897 0.0695,-0.0185 0.14037,-0.0324 0.21033,-0.0463 z m -5.33767,2.27163 c 0.0324,5e-5 0.0621,5.6e-4 0.0931,0.001 a 0.26125261,0.26125261 0 0 0 0.0523,0.005 c 1.47278,0.0278 2.58814,0.7505 3.211,1.33968 0.0185,0.0139 0.0324,0.0324 0.0491,0.0473 0.002,0.002 0.003,0.003 0.005,0.005 0.0625,0.0616 0.12323,0.12509 0.18253,0.18994 0.0473,0.0523 0.0899,0.10285 0.12693,0.14964 a 0.26125261,0.26125261 0 0 0 0.002,0.002 0.26125261,0.26125261 0 0 0 0.003,0.004 c 0.28491,0.33818 0.52099,0.71181 0.70366,1.10929 0.005,0.009 0.009,0.0185 0.0139,0.0324 0.009,0.0139 0.0139,0.0324 0.0232,0.0477 0.19086,0.43917 0.32011,0.91249 0.37617,1.41004 -0.52187,0.33865 -1.13936,0.54119 -1.81161,0.54119 -1.85431,0 -3.33959,-1.48838 -3.33959,-3.34803 v -0.75985 c 0,-0.26499 0.0371,-0.51951 0.0954,-0.76606 0.0723,-0.004 0.14407,-0.009 0.21588,-0.009 z m 6.35278,0.57042 c 0.004,0.069 0.0139,0.1362 0.0139,0.20662 v 0.75985 c 0,0.96535 -0.40351,1.82754 -1.04824,2.43664 -0.15056,-0.87974 -0.51131,-1.68365 -1.02683,-2.36081 0.59446,-0.50908 1.29895,-0.8645 2.06001,-1.04216 z m -0.1867,6.40328 c 0.0278,1.8e-4 0.0542,9.3e-4 0.0811,0.002 0.48555,0.0139 0.89017,0.11396 1.12533,0.1816 -0.11026,0.4452 -0.45308,1.54152 -1.27612,2.01002 -0.82624,0.47022 -1.968,0.21125 -2.41205,0.0834 0.11026,-0.4452 0.45308,-1.54134 1.27617,-2.00988 0.36459,-0.20755 0.79728,-0.27148 1.20542,-0.26685 z m -6.22163,4.58273 c 0.40814,-0.004 0.84102,0.0598 1.20538,0.26684 0.82322,0.46855 1.1659,1.56477 1.27616,2.00993 -0.44381,0.12786 -1.58581,0.38683 -2.41205,-0.0834 -0.82318,-0.4685 -1.1659,-1.56473 -1.27611,-2.00988 0.23534,-0.0676 0.63972,-0.16585 1.12532,-0.18161 0.0278,-9.3e-4 0.0542,-0.001 0.0811,-0.002 z m 6.22163,4.51972 c 0.0278,1.9e-4 0.0542,7.4e-4 0.0811,0.002 0.48555,0.0139 0.89017,0.11396 1.12533,0.1816 -0.11026,0.4452 -0.45308,1.54152 -1.27612,2.01007 -0.82624,0.47021 -1.968,0.21125 -2.41205,0.0834 0.11026,-0.4452 0.45308,-1.54139 1.27617,-2.00989 0.36459,-0.20754 0.79728,-0.27147 1.20542,-0.26684 z"
       style="color:#000000;font-style:normal;font-variant:normal;font-weight:normal;font-stretch:normal;font-size:medium;line-height:normal;font-family:sans-serif;font-variant-ligatures:normal;font-variant-position:normal;font-variant-caps:normal;font-variant-numeric:normal;font-variant-alternates:normal;font-feature-settings:normal;text-indent:0;text-align:start;text-decoration:none;text-decoration-line:none;text-decoration-style:solid;text-decoration-color:#000000;letter-spacing:normal;word-spacing:normal;text-transform:none;writing-mode:lr-tb;direction:ltr;text-orientation:mixed;dominant-baseline:auto;baseline-shift:baseline;text-anchor:start;white-space:normal;shape-padding:0;clip-rule:nonzero;display:inline;overflow:visible;visibility:visible;opacity:1;isolation:auto;mix-blend-mode:normal;color-interpolation:sRGB;color-interpolation-filters:linearRGB;solid-color:#000000;solid-opacity:1;vector-effect:none;fill:#000000;fill-opacity:1;fill-rule:nonzero;stroke:none;stroke-width:3.72972417;stroke-linecap:round;stroke-linejoin:round;stroke-miterlimit:4;stroke-dasharray:none;stroke-dashoffset:0;stroke-opacity:1;paint-order:fill markers stroke;color-rendering:auto;image-rendering:auto;shape-rendering:auto;text-rendering:auto;enable-background:accumulate" />
  </g>
</svg>
