<?xml version="1.0" encoding="UTF-8" standalone="no"?>
<!-- Created with Inkscape (http://www.inkscape.org/) -->

<svg
   xmlns:dc="http://purl.org/dc/elements/1.1/"
   xmlns:cc="http://creativecommons.org/ns#"
   xmlns:rdf="http://www.w3.org/1999/02/22-rdf-syntax-ns#"
   xmlns:svg="http://www.w3.org/2000/svg"
   xmlns="http://www.w3.org/2000/svg"
   xmlns:sodipodi="http://sodipodi.sourceforge.net/DTD/sodipodi-0.dtd"
   xmlns:inkscape="http://www.inkscape.org/namespaces/inkscape"
   width="100"
   height="100"
   viewBox="0 0 26.458333 26.458334"
   version="1.1"
   id="svg1876"
   inkscape:version="0.92.5 (0.92.5+68)"
   sodipodi:docname="92.svg">
  <defs
     id="defs1870">
    <inkscape:path-effect
       effect="powerstroke"
       id="path-effect2476"
       is_visible="true"
       offset_points="0.015004032,1.489488"
       sort_points="true"
       interpolator_type="CubicBezierJohan"
       interpolator_beta="0.2"
       start_linecap_type="zerowidth"
       linejoin_type="extrp_arc"
       miter_limit="4"
       end_linecap_type="zerowidth" />
    <inkscape:path-effect
       effect="powerstroke"
       id="path-effect2480"
       is_visible="true"
       offset_points="0.015004032,1.489488"
       sort_points="true"
       interpolator_type="CubicBezierJohan"
       interpolator_beta="0.2"
       start_linecap_type="zerowidth"
       linejoin_type="extrp_arc"
       miter_limit="4"
       end_linecap_type="zerowidth" />
    <inkscape:path-effect
       effect="powerstroke"
       id="path-effect2064"
       is_visible="true"
       offset_points="0.015004032,1.489488"
       sort_points="true"
       interpolator_type="CubicBezierJohan"
       interpolator_beta="0.2"
       start_linecap_type="zerowidth"
       linejoin_type="extrp_arc"
       miter_limit="4"
       end_linecap_type="zerowidth" />
    <inkscape:path-effect
       effect="powerstroke"
       id="path-effect2141"
       is_visible="true"
       offset_points="0.015004032,1.489488"
       sort_points="true"
       interpolator_type="CubicBezierJohan"
       interpolator_beta="0.2"
       start_linecap_type="zerowidth"
       linejoin_type="extrp_arc"
       miter_limit="4"
       end_linecap_type="zerowidth" />
    <inkscape:path-effect
       end_linecap_type="zerowidth"
       miter_limit="4"
       linejoin_type="extrp_arc"
       start_linecap_type="zerowidth"
       interpolator_beta="0.2"
       interpolator_type="CubicBezierJohan"
       sort_points="true"
       offset_points="0.015004032,1.489488"
       is_visible="true"
       id="path-effect1474"
       effect="powerstroke" />
    <inkscape:path-effect
       end_linecap_type="zerowidth"
       miter_limit="4"
       linejoin_type="extrp_arc"
       start_linecap_type="zerowidth"
       interpolator_beta="0.2"
       interpolator_type="CubicBezierJohan"
       sort_points="true"
       offset_points="0.015004032,1.489488"
       is_visible="true"
       id="path-effect1478"
       effect="powerstroke" />
    <inkscape:path-effect
       effect="powerstroke"
       id="path-effect1858"
       is_visible="true"
       offset_points="0.015004032,1.489488"
       sort_points="true"
       interpolator_type="CubicBezierJohan"
       interpolator_beta="0.2"
       start_linecap_type="zerowidth"
       linejoin_type="extrp_arc"
       miter_limit="4"
       end_linecap_type="zerowidth" />
    <inkscape:path-effect
       effect="powerstroke"
       id="path-effect2191"
       is_visible="true"
       offset_points="0.015004032,1.489488"
       sort_points="true"
       interpolator_type="CubicBezierJohan"
       interpolator_beta="0.2"
       start_linecap_type="zerowidth"
       linejoin_type="extrp_arc"
       miter_limit="4"
       end_linecap_type="zerowidth" />
    <inkscape:path-effect
       effect="powerstroke"
       id="path-effect2193"
       is_visible="true"
       offset_points="0.015004032,1.489488"
       sort_points="true"
       interpolator_type="CubicBezierJohan"
       interpolator_beta="0.2"
       start_linecap_type="zerowidth"
       linejoin_type="extrp_arc"
       miter_limit="4"
       end_linecap_type="zerowidth" />
    <inkscape:path-effect
       effect="powerstroke"
       id="path-effect2195"
       is_visible="true"
       offset_points="0.015004032,1.489488"
       sort_points="true"
       interpolator_type="CubicBezierJohan"
       interpolator_beta="0.2"
       start_linecap_type="zerowidth"
       linejoin_type="extrp_arc"
       miter_limit="4"
       end_linecap_type="zerowidth" />
    <inkscape:path-effect
       effect="powerstroke"
       id="path-effect2197"
       is_visible="true"
       offset_points="0.015004032,1.489488"
       sort_points="true"
       interpolator_type="CubicBezierJohan"
       interpolator_beta="0.2"
       start_linecap_type="zerowidth"
       linejoin_type="extrp_arc"
       miter_limit="4"
       end_linecap_type="zerowidth" />
  </defs>
  <sodipodi:namedview
     id="base"
     pagecolor="#ffffff"
     bordercolor="#666666"
     borderopacity="1.0"
     inkscape:pageopacity="0.0"
     inkscape:pageshadow="2"
     inkscape:zoom="4.0000002"
     inkscape:cx="31.461958"
     inkscape:cy="47.87232"
     inkscape:document-units="px"
     inkscape:current-layer="layer1"
     showgrid="false"
     units="px"
     fit-margin-top="0"
     fit-margin-left="0"
     fit-margin-right="0"
     fit-margin-bottom="0"
     inkscape:showpageshadow="false"
     inkscape:window-width="1366"
     inkscape:window-height="719"
     inkscape:window-x="0"
     inkscape:window-y="21"
     inkscape:window-maximized="1" />
  <metadata
     id="metadata1873">
    <rdf:RDF>
      <cc:Work
         rdf:about="">
        <dc:format>image/svg+xml</dc:format>
        <dc:type
           rdf:resource="http://purl.org/dc/dcmitype/StillImage" />
        <dc:title></dc:title>
      </cc:Work>
    </rdf:RDF>
  </metadata>
  <g
     inkscape:label="Layer 1"
     inkscape:groupmode="layer"
     id="layer1"
     transform="translate(131.02975,-196.70833)">
    <path
       inkscape:connector-curvature="0"
       id="path3658"
       d="m -116.72458,196.97288 c -0.71892,0.16371 -1.39203,0.47062 -1.98538,0.90352 0.394,0.17795 0.76322,0.40028 1.10136,0.66105 0.28389,-0.206 0.58607,-0.38437 0.90261,-0.53259 v -0.77729 c 0,-0.0867 -0.0126,-0.16957 -0.0168,-0.25457 z m -3.17178,1.0754 c -0.12185,0.22819 -0.22652,0.46962 -0.29645,0.7316 l -0.20056,0.75091 c -0.0377,0.14278 -0.0511,0.28514 -0.0695,0.42737 1.40275,0.11892 2.66414,0.76494 3.57662,1.74655 0.19135,-0.16371 0.39317,-0.31361 0.60374,-0.44898 -0.24453,-0.68994 -0.63158,-1.30828 -1.12641,-1.81969 -0.12016,-0.1231 -0.24703,-0.24034 -0.38018,-0.3513 a 0.26730307,0.26730307 0 0 1 -0.0251,-0.0251 c -0.28472,-0.23573 -0.59641,-0.44006 -0.92974,-0.60813 -0.0168,-0.008 -0.0335,-0.0167 -0.0482,-0.0251 -0.008,-0.004 -0.0209,-0.008 -0.0293,-0.0126 -0.0293,-0.0126 -0.0603,-0.0293 -0.0904,-0.0423 -0.004,-0.002 -0.008,-0.004 -0.0126,-0.004 -0.13441,-0.0607 -0.27174,-0.11598 -0.41243,-0.16497 a 0.26730309,0.26730309 0 0 1 -0.004,-0.002 c -0.11096,-0.0377 -0.22401,-0.0737 -0.33832,-0.10467 -0.0712,-0.0168 -0.14361,-0.0293 -0.21521,-0.0465 z m 4.43116,0.10007 c -0.072,0.0167 -0.14403,0.0293 -0.21521,0.0465 -0.5388,0.14738 -1.04514,0.38939 -1.50454,0.70493 0.6052,0.57262 1.08118,1.2817 1.38068,2.08147 0.30147,-0.15366 0.61722,-0.27969 0.94301,-0.376 0.008,-0.32073 -0.0209,-0.64707 -0.10677,-0.97428 l -0.20056,-0.75091 c -0.0699,-0.26211 -0.1746,-0.50329 -0.29644,-0.73161 z m -5.46143,2.32428 c -0.0737,6.6e-4 -0.14739,0.008 -0.22066,0.0126 -0.0586,0.25206 -0.0976,0.5125 -0.0976,0.78378 v 0.77745 c 0,1.90272 1.51965,3.42556 3.41689,3.42556 0.68773,0 1.31951,-0.20726 1.85345,-0.55362 -0.0574,-0.51057 -0.1901,-0.99639 -0.38647,-1.44662 -0.004,-0.008 -0.008,-0.0168 -0.0126,-0.0251 -0.008,-0.0168 -0.0168,-0.0377 -0.0251,-0.0536 -0.18675,-0.40531 -0.4275,-0.78583 -0.71808,-1.13088 a 0.26730307,0.26730307 0 0 1 -0.004,-0.004 0.26730307,0.26730307 0 0 1 -0.002,-0.002 c -0.0377,-0.0473 -0.0804,-0.098 -0.12771,-0.15115 -0.0611,-0.0674 -0.12393,-0.13315 -0.18883,-0.1968 -0.002,-0.002 -0.003,-0.003 -0.004,-0.004 -0.0168,-0.0168 -0.0335,-0.0335 -0.0507,-0.0486 -0.47657,-0.45066 -1.23452,-0.97747 -2.21663,-1.22664 0,0 -1.7e-4,0 -1.7e-4,-5e-5 -8e-5,0 -1.7e-4,-4e-5 -1.7e-4,-4e-5 -0.0745,-0.0209 -0.15073,-0.0377 -0.22777,-0.0519 -0.003,-5.9e-4 -0.004,-0.001 -0.008,-0.002 -0.26293,-0.0523 -0.54054,-0.0846 -0.83183,-0.09 a 0.26730307,0.26730307 0 0 1 -0.0536,-0.008 c -0.0335,-6.6e-4 -0.0637,-0.001 -0.0955,-0.001 z m 6.50003,0.58363 c -0.77862,0.18172 -1.49959,0.54537 -2.10785,1.06624 0.52753,0.69287 0.89653,1.51546 1.05062,2.4156 0.65988,-0.62316 1.07264,-1.50538 1.07264,-2.49315 v -0.77745 c 0,-0.072 -0.0126,-0.14069 -0.0168,-0.21145 z m -3.11107,4.93822 c -0.0959,0.008 -0.1926,0.0126 -0.29058,0.0126 -0.0821,0 -0.1633,-0.003 -0.24411,-0.008 v 16.63263 a 0.26730307,0.26730307 0 1 0 0.53457,0 z m 2.91993,1.61332 c -0.41745,-0.004 -0.8604,0.0607 -1.23321,0.27299 -0.84227,0.47938 -1.1929,1.60097 -1.3057,2.05643 0.4543,0.13106 1.62241,0.3961 2.46773,-0.0854 0.84227,-0.47938 1.19306,-1.60113 1.30586,-2.0566 -0.24075,-0.0695 -0.65469,-0.16958 -1.15157,-0.18591 -0.0293,-9.3e-4 -0.0553,-0.002 -0.0833,-0.002 z m -6.36558,4.68887 c -0.0293,2.9e-4 -0.0557,8.7e-4 -0.0833,0.002 -0.49683,0.0167 -0.91089,0.11639 -1.15148,0.1859 0.11263,0.45547 0.46355,1.57706 1.30582,2.05643 0.84532,0.48114 2.01347,0.21647 2.46777,0.0854 -0.11264,-0.45547 -0.46347,-1.57706 -1.3057,-2.05643 -0.37306,-0.21229 -0.81563,-0.27761 -1.23321,-0.273 z m 6.36558,4.6244 c -0.41745,-0.004 -0.8604,0.0607 -1.23321,0.273 -0.84227,0.47937 -1.1929,1.601 -1.3057,2.05647 0.4543,0.13106 1.62241,0.3961 2.46773,-0.0854 0.84227,-0.47938 1.19306,-1.60114 1.30586,-2.0566 -0.24075,-0.0695 -0.65469,-0.16958 -1.15157,-0.18591 -0.0293,-8.5e-4 -0.0553,-0.002 -0.0833,-0.002 z"
       style="color:#000000;font-style:normal;font-variant:normal;font-weight:normal;font-stretch:normal;font-size:medium;line-height:normal;font-family:sans-serif;font-variant-ligatures:normal;font-variant-position:normal;font-variant-caps:normal;font-variant-numeric:normal;font-variant-alternates:normal;font-feature-settings:normal;text-indent:0;text-align:start;text-decoration:none;text-decoration-line:none;text-decoration-style:solid;text-decoration-color:#000000;letter-spacing:normal;word-spacing:normal;text-transform:none;writing-mode:lr-tb;direction:ltr;text-orientation:mixed;dominant-baseline:auto;baseline-shift:baseline;text-anchor:start;white-space:normal;shape-padding:0;clip-rule:nonzero;display:inline;overflow:visible;visibility:visible;opacity:1;isolation:auto;mix-blend-mode:normal;color-interpolation:sRGB;color-interpolation-filters:linearRGB;solid-color:#000000;solid-opacity:1;vector-effect:none;fill:#000000;fill-opacity:1;fill-rule:nonzero;stroke:none;stroke-width:3.81610274;stroke-linecap:round;stroke-linejoin:round;stroke-miterlimit:4;stroke-dasharray:none;stroke-dashoffset:0;stroke-opacity:1;paint-order:fill markers stroke;color-rendering:auto;image-rendering:auto;shape-rendering:auto;text-rendering:auto;enable-background:accumulate" />
  </g>
</svg>
